<svg width="893" height="704" viewBox="0 0 893 704" fill="none" xmlns="http://www.w3.org/2000/svg">
<path d="M421.529 505.681C553.262 505.681 660.053 398.8 660.053 266.956C660.053 135.112 553.262 28.2314 421.529 28.2314C289.795 28.2314 183.004 135.112 183.004 266.956C183.004 398.8 289.795 505.681 421.529 505.681Z" fill="#DBE8EC"/>
<path d="M259.238 256.412C259.374 262.012 259.354 267.606 259.279 273.199C259.257 275.996 259.177 278.791 259.125 281.587L258.883 289.972L258.555 298.354C258.416 301.147 258.307 303.941 258.138 306.733C257.833 312.318 257.471 317.901 256.952 323.478C256.815 317.878 256.834 312.284 256.909 306.691C256.931 303.894 257.012 301.099 257.064 298.303L257.308 289.918L257.637 281.536C257.775 278.743 257.887 275.949 258.055 273.157C258.361 267.572 258.722 261.989 259.238 256.412Z" fill="#3086A3"/>
<path d="M319.823 277.65C317.248 282.361 314.541 286.99 311.788 291.589C310.424 293.896 309.012 296.173 307.622 298.465L303.383 305.294L299.071 312.078C297.608 314.323 296.17 316.584 294.683 318.814C291.734 323.29 288.737 327.736 285.608 332.098C288.182 327.386 290.888 322.757 293.641 318.158C295.005 315.851 296.419 313.575 297.807 311.283L302.049 304.455L306.362 297.672C307.824 295.426 309.263 293.166 310.75 290.936C313.7 286.46 316.695 282.014 319.823 277.65Z" fill="#3086A3"/>
<path d="M291.067 263.353C289.73 268.819 288.245 274.238 286.706 279.642C285.951 282.348 285.142 285.038 284.359 287.735L281.927 295.802L279.414 303.844C278.548 306.516 277.71 309.197 276.815 311.86C275.056 317.196 273.243 322.515 271.28 327.788C272.616 322.322 274.101 316.902 275.639 311.498C276.394 308.792 277.204 306.103 277.987 303.405L280.421 295.339L282.936 287.297C283.801 284.625 284.641 281.945 285.535 279.282C287.295 273.946 289.107 268.627 291.067 263.353Z" fill="#3086A3"/>
<path d="M294.642 308.821L262.771 299.234C259.865 298.36 256.8 300.01 255.927 302.919L251.931 316.225C251.057 319.134 252.705 322.201 255.612 323.075L287.482 332.662C290.389 333.536 293.453 331.887 294.327 328.978L298.323 315.671C299.196 312.762 297.548 309.695 294.642 308.821Z" fill="#409CB5"/>
<path d="M259.336 298.201C258.947 300.25 258.459 302.27 257.937 304.279C257.421 306.29 256.845 308.283 256.259 310.273C255.653 312.257 255.036 314.237 254.359 316.2C253.689 318.164 252.983 320.118 252.176 322.041C252.563 319.992 253.051 317.972 253.573 315.963C254.09 313.952 254.665 311.959 255.253 309.97C255.86 307.986 256.478 306.006 257.155 304.044C257.825 302.079 258.531 300.125 259.336 298.201ZM264.112 299.638C263.723 301.687 263.236 303.707 262.713 305.715C262.197 307.726 261.622 309.719 261.035 311.709C260.43 313.693 259.812 315.674 259.135 317.636C258.465 319.601 257.758 321.554 256.952 323.478C257.339 321.428 257.827 319.409 258.349 317.4C258.866 315.389 259.441 313.396 260.029 311.407C260.636 309.423 261.254 307.443 261.931 305.48C262.601 303.516 263.307 301.562 264.112 299.638ZM268.888 301.074C268.499 303.124 268.012 305.143 267.489 307.152C266.973 309.163 266.397 311.156 265.811 313.146C265.206 315.13 264.588 317.11 263.911 319.073C263.241 321.037 262.535 322.991 261.728 324.915C262.116 322.865 262.603 320.845 263.126 318.837C263.642 316.826 264.217 314.833 264.805 312.843C265.412 310.859 266.03 308.879 266.706 306.917C267.377 304.952 268.083 302.998 268.888 301.074ZM273.664 302.511C273.275 304.56 272.788 306.58 272.265 308.589C271.749 310.6 271.174 312.593 270.587 314.582C269.982 316.566 269.364 318.547 268.687 320.509C268.017 322.474 267.31 324.428 266.504 326.351C266.891 324.302 267.379 322.282 267.901 320.273C268.418 318.262 268.993 316.269 269.581 314.28C270.188 312.296 270.806 310.316 271.483 308.353C272.153 306.389 272.859 304.435 273.664 302.511ZM278.44 303.947C278.051 305.997 277.564 308.016 277.041 310.025C276.525 312.036 275.95 314.029 275.363 316.019C274.758 318.003 274.14 319.983 273.463 321.946C272.793 323.91 272.087 325.864 271.28 327.788C271.668 325.738 272.155 323.719 272.678 321.71C273.194 319.699 273.769 317.706 274.357 315.716C274.964 313.733 275.582 311.752 276.258 309.79C276.929 307.825 277.635 305.872 278.44 303.947ZM283.215 305.384C282.827 307.434 282.34 309.453 281.817 311.462C281.301 313.473 280.726 315.466 280.139 317.456C279.534 319.44 278.916 321.42 278.239 323.383C277.569 325.347 276.863 327.301 276.057 329.225C276.443 327.175 276.931 325.155 277.453 323.146C277.97 321.136 278.545 319.142 279.133 317.153C279.74 315.169 280.358 313.189 281.035 311.226C281.705 309.262 282.411 307.308 283.215 305.384ZM287.992 306.821C287.603 308.87 287.116 310.89 286.593 312.899C286.077 314.91 285.502 316.903 284.915 318.892C284.31 320.876 283.691 322.856 283.015 324.819C282.345 326.784 281.639 328.737 280.832 330.661C281.22 328.612 281.707 326.592 282.23 324.583C282.746 322.572 283.321 320.579 283.909 318.59C284.516 316.606 285.134 314.626 285.81 312.663C286.481 310.699 287.187 308.745 287.992 306.821ZM292.768 308.257C292.379 310.307 291.892 312.326 291.369 314.335C290.853 316.346 290.278 318.339 289.691 320.329C289.086 322.313 288.468 324.293 287.791 326.256C287.121 328.22 286.415 330.174 285.609 332.098C285.996 330.048 286.483 328.029 287.006 326.019C287.522 324.009 288.097 322.016 288.685 320.026C289.292 318.043 289.91 316.062 290.587 314.1C291.257 312.135 291.963 310.181 292.768 308.257ZM297.544 309.694C297.155 311.743 296.668 313.763 296.145 315.772C295.629 317.783 295.054 319.776 294.467 321.766C293.862 323.749 293.244 325.73 292.567 327.692C291.897 329.657 291.191 331.611 290.384 333.534C290.772 331.485 291.259 329.465 291.781 327.456C292.298 325.445 292.873 323.452 293.461 321.463C294.068 319.479 294.686 317.499 295.363 315.536C296.033 313.572 296.739 311.618 297.544 309.694Z" fill="#3086A3"/>
<path d="M256.563 300.69C260.157 301.559 263.732 302.492 267.287 303.489C270.847 304.472 274.389 305.514 277.928 306.568C281.46 307.64 284.99 308.725 288.501 309.869C292.017 310.998 295.513 312.193 298.99 313.452C295.395 312.585 291.82 311.652 288.265 310.655C284.705 309.672 281.163 308.629 277.625 307.575C274.093 306.501 270.564 305.416 267.052 304.273C263.536 303.143 260.04 301.949 256.563 300.69ZM255.171 305.324C258.765 306.193 262.34 307.126 265.896 308.124C269.455 309.107 272.997 310.149 276.536 311.202C280.069 312.275 283.598 313.359 287.11 314.503C290.625 315.632 294.122 316.827 297.598 318.087C294.004 317.219 290.429 316.286 286.873 315.289C283.314 314.306 279.772 313.263 276.233 312.209C272.701 311.135 269.172 310.05 265.66 308.907C262.145 307.777 258.648 306.583 255.171 305.324ZM253.78 309.958C257.374 310.828 260.948 311.761 264.504 312.758C268.064 313.741 271.606 314.783 275.144 315.836C278.677 316.908 282.206 317.993 285.718 319.137C289.234 320.266 292.73 321.461 296.207 322.721C292.612 321.853 289.037 320.92 285.482 319.923C281.922 318.94 278.38 317.898 274.842 316.843C271.309 315.77 267.78 314.684 264.269 313.541C260.753 312.411 257.257 311.217 253.78 309.958ZM252.388 314.593C255.982 315.462 259.557 316.395 263.112 317.392C266.672 318.375 270.214 319.417 273.753 320.47C277.286 321.543 280.815 322.628 284.326 323.771C287.842 324.9 291.338 326.095 294.815 327.355C291.221 326.487 287.646 325.555 284.09 324.557C280.531 323.574 276.989 322.532 273.45 321.477C269.918 320.404 266.389 319.318 262.877 318.175C259.362 317.045 255.865 315.851 252.388 314.593ZM250.997 319.227C254.591 320.096 258.165 321.029 261.721 322.026C265.281 323.009 268.823 324.051 272.361 325.104C275.894 326.177 279.423 327.262 282.935 328.405C286.451 329.534 289.947 330.729 293.423 331.989C289.829 331.121 286.254 330.189 282.699 329.191C279.139 328.208 275.597 327.166 272.059 326.111C268.526 325.038 264.997 323.953 261.486 322.809C257.97 321.679 254.474 320.485 250.997 319.227Z" fill="#3086A3"/>
<path d="M365.848 213.682C374.148 186.042 353.456 155.386 325.838 147.078C298.22 138.771 264.07 152.93 255.77 180.571C252.564 191.244 258.533 277.096 258.533 277.096L310.373 292.689C310.373 292.689 362.643 224.356 365.848 213.682Z" fill="#4CB9D3"/>
<path d="M325.838 147.078C321.596 145.813 317.22 145.053 312.8 144.812C333.95 157.141 347.712 182.707 340.684 206.113C337.478 216.786 285.208 285.119 285.208 285.119L310.373 292.689C310.373 292.689 362.643 224.356 365.848 213.682C374.148 186.041 353.456 155.386 325.838 147.078Z" fill="#409CB5"/>
<path d="M337.964 152.382C334.144 150.144 330.074 148.364 325.838 147.078C298.22 138.771 264.07 152.93 255.77 180.571C252.564 191.244 258.533 277.096 258.533 277.096L283.698 284.665C283.698 284.665 277.729 198.814 280.934 188.14C287.962 164.734 313.526 150.998 337.964 152.382Z" fill="#409CB5"/>
<path d="M325.838 147.078C324.158 146.573 322.455 146.15 320.731 145.811C345.8 156.079 363.578 184.696 355.782 210.655C352.577 221.328 300.307 289.661 300.307 289.661L310.373 292.689C310.373 292.689 362.643 224.356 365.848 213.682C374.148 186.042 353.456 155.386 325.838 147.078Z" fill="#3086A3"/>
<path d="M330.797 148.839C329.172 148.174 327.52 147.587 325.838 147.078C298.22 138.771 264.07 152.93 255.77 180.571C252.564 191.244 258.533 277.096 258.533 277.096L268.599 280.124C268.599 280.124 262.63 194.272 265.835 183.599C273.631 157.64 304.225 143.573 330.797 148.839Z" fill="#3086A3"/>
<path d="M571.319 188.569C571.313 203.373 565.435 217.57 554.978 228.04C544.521 238.511 530.339 244.399 515.548 244.412H307.144C296.535 244.413 286.299 240.489 278.406 233.393C270.513 226.298 265.519 216.533 264.385 205.975C263.251 195.418 266.056 184.813 272.262 176.201C278.468 167.588 287.635 161.576 298.002 159.319C298.832 146.756 304.399 134.977 313.577 126.366C322.755 117.756 334.859 112.956 347.44 112.939C352.534 112.94 357.596 113.749 362.436 115.337C369.781 101.12 381.299 89.4958 395.442 82.0269C409.585 74.558 425.674 71.6032 441.545 73.5601C457.416 75.5169 472.307 82.2915 484.216 92.9724C496.125 103.653 504.48 117.728 508.157 133.304C542.063 128.618 571.319 155.378 571.319 188.569V188.569Z" fill="#F9AE2B"/>
<path d="M383.819 473.641C384.173 488.281 384.121 502.907 383.925 517.528C383.866 524.84 383.659 532.147 383.522 539.457L382.888 561.376L382.033 583.289C381.669 590.59 381.384 597.894 380.943 605.193C380.143 619.794 379.197 634.389 377.842 648.97C377.482 634.331 377.532 619.705 377.729 605.083C377.786 597.772 377.999 590.465 378.133 583.156L378.772 561.236L379.633 539.324C379.994 532.022 380.285 524.717 380.724 517.419C381.525 502.818 382.468 488.223 383.819 473.641Z" fill="#3086A3"/>
<path d="M542.201 529.165C535.468 541.481 528.393 553.581 521.195 565.604C517.629 571.636 513.938 577.589 510.306 583.58L499.222 601.432L487.949 619.167C484.125 625.037 480.367 630.948 476.478 636.777C468.769 648.478 460.936 660.1 452.756 671.505C459.483 659.186 466.557 647.085 473.755 635.063C477.32 629.03 481.016 623.08 484.645 617.088L495.735 599.238L507.011 581.506C510.833 575.634 514.596 569.726 518.483 563.897C526.194 552.196 534.025 540.573 542.201 529.165Z" fill="#3086A3"/>
<path d="M467.027 491.789C463.531 506.078 459.647 520.246 455.626 534.372C453.652 541.447 451.537 548.478 449.489 555.53L443.131 576.619L436.562 597.643C434.297 604.628 432.106 611.636 429.768 618.599C425.168 632.547 420.429 646.453 415.298 660.238C418.789 645.948 422.671 631.779 426.694 617.653C428.666 610.578 430.786 603.549 432.832 596.496L439.194 575.408L445.769 554.385C448.031 547.399 450.227 540.393 452.563 533.43C457.164 519.482 461.901 505.576 467.027 491.789Z" fill="#3086A3"/>
<path d="M484.868 613.209L384.558 583.036C381.652 582.162 378.587 583.811 377.714 586.72L362.161 638.511C361.288 641.42 362.936 644.487 365.842 645.361L466.152 675.534C469.059 676.408 472.123 674.759 472.997 671.85L488.549 620.06C489.422 617.151 487.774 614.084 484.868 613.209Z" fill="#409CB5"/>
<path d="M384.071 582.891C383.056 588.248 381.781 593.527 380.415 598.779C379.066 604.036 377.562 609.247 376.028 614.448C374.446 619.635 372.83 624.812 371.061 629.943C369.309 635.078 367.463 640.186 365.355 645.215C366.368 639.856 367.641 634.577 369.008 629.325C370.358 624.068 371.862 618.857 373.399 613.657C374.984 608.471 376.6 603.295 378.37 598.164C380.123 593.029 381.968 587.92 384.071 582.891ZM396.557 586.646C395.542 592.003 394.267 597.283 392.901 602.535C391.551 607.792 390.048 613.002 388.514 618.204C386.932 623.391 385.316 628.568 383.547 633.698C381.795 638.834 379.949 643.942 377.842 648.971C378.853 643.612 380.127 638.332 381.493 633.081C382.844 627.824 384.348 622.613 385.885 617.413C387.471 612.227 389.086 607.05 390.855 601.92C392.608 596.784 394.453 591.676 396.557 586.646ZM409.043 590.401C408.028 595.759 406.753 601.039 405.387 606.29C404.037 611.547 402.533 616.758 401 621.959C399.417 627.146 397.802 632.323 396.033 637.454C394.281 642.59 392.435 647.697 390.327 652.726C391.339 647.368 392.612 642.088 393.98 636.836C395.33 631.579 396.833 626.369 398.37 621.168C399.956 615.983 401.572 610.806 403.341 605.675C405.094 600.539 406.939 595.431 409.043 590.401ZM421.529 594.157C420.513 599.515 419.239 604.794 417.872 610.046C416.523 615.303 415.019 620.514 413.486 625.715C411.903 630.902 410.287 636.079 408.518 641.21C406.766 646.345 404.92 651.453 402.813 656.482C403.825 651.124 405.098 645.844 406.465 640.592C407.815 635.335 409.319 630.125 410.856 624.924C412.442 619.738 414.057 614.561 415.827 609.431C417.58 604.295 419.425 599.187 421.529 594.157ZM434.014 597.913C432.999 603.271 431.724 608.55 430.358 613.802C429.009 619.059 427.505 624.27 425.971 629.471C424.389 634.658 422.773 639.835 421.004 644.966C419.251 650.101 417.406 655.209 415.298 660.238C416.311 654.879 417.584 649.6 418.951 644.348C420.301 639.091 421.805 633.88 423.341 628.68C424.927 623.494 426.543 618.317 428.312 613.186C430.066 608.051 431.91 602.943 434.014 597.913ZM446.5 601.669C445.485 607.026 444.21 612.305 442.844 617.558C441.494 622.815 439.991 628.025 438.457 633.227C436.874 638.414 435.259 643.59 433.49 648.721C431.737 653.857 429.891 658.965 427.784 663.993C428.796 658.635 430.069 653.355 431.436 648.104C432.787 642.847 434.291 637.636 435.827 632.436C437.413 627.25 439.029 622.073 440.798 616.942C442.551 611.807 444.396 606.699 446.5 601.669ZM458.986 605.424C457.971 610.782 456.695 616.061 455.33 621.313C453.98 626.57 452.476 631.781 450.942 636.982C449.36 642.169 447.744 647.346 445.976 652.477C444.223 657.613 442.377 662.72 440.27 667.749C441.282 662.391 442.555 657.111 443.922 651.859C445.273 646.603 446.776 641.392 448.313 636.191C449.899 631.006 451.514 625.828 453.284 620.698C455.037 615.562 456.881 610.454 458.986 605.424ZM471.471 609.18C470.456 614.538 469.181 619.817 467.815 625.069C466.465 630.326 464.962 635.536 463.428 640.738C461.845 645.925 460.23 651.102 458.461 656.232C456.709 661.368 454.863 666.476 452.756 671.505C453.767 666.147 455.04 660.867 456.408 655.615C457.758 650.358 459.262 645.148 460.798 639.947C462.384 634.761 464 629.584 465.77 624.453C467.522 619.318 469.367 614.21 471.471 609.18ZM483.957 612.936C482.941 618.294 481.667 623.573 480.301 628.825C478.951 634.081 477.447 639.292 475.914 644.494C474.331 649.68 472.715 654.857 470.947 659.988C469.194 665.124 467.349 670.231 465.241 675.261C466.253 669.902 467.527 664.622 468.893 659.37C470.244 654.114 471.747 648.903 473.284 643.703C474.87 638.517 476.485 633.34 478.255 628.209C480.009 623.074 481.853 617.966 483.957 612.936Z" fill="#3086A3"/>
<path d="M376.823 589.397C386.22 591.669 395.565 594.108 404.86 596.714C414.166 599.284 423.426 602.009 432.676 604.763C441.912 607.566 451.138 610.402 460.318 613.392C469.509 616.344 478.649 619.467 487.738 622.76C478.341 620.492 468.995 618.054 459.701 615.447C450.395 612.877 441.135 610.152 431.886 607.395C422.651 604.588 413.425 601.752 404.245 598.762C395.054 595.809 385.914 592.687 376.823 589.397ZM373.186 601.512C382.581 603.783 391.927 606.222 401.222 608.829C410.528 611.399 419.788 614.123 429.038 616.877C438.274 619.681 447.5 622.517 456.68 625.507C465.871 628.459 475.011 631.582 484.1 634.875C474.703 632.607 465.358 630.169 456.063 627.562C446.757 624.991 437.497 622.267 428.247 619.51C419.013 616.703 409.787 613.867 400.607 610.876C391.416 607.923 382.275 604.802 373.186 601.512ZM369.548 613.626C378.943 615.898 388.289 618.338 397.584 620.944C406.89 623.514 416.149 626.239 425.4 628.993C434.636 631.796 443.862 634.632 453.042 637.621C462.233 640.574 471.374 643.697 480.462 646.99C471.065 644.721 461.72 642.283 452.425 639.676C443.119 637.106 433.86 634.382 424.61 631.624C415.375 628.818 406.149 625.981 396.969 622.991C387.778 620.038 378.638 616.916 369.548 613.626ZM365.91 625.742C375.305 628.013 384.651 630.452 393.946 633.058C403.252 635.628 412.511 638.353 421.762 641.107C430.998 643.91 440.224 646.747 449.404 649.736C458.595 652.688 467.735 655.811 476.824 659.104C467.428 656.836 458.082 654.399 448.787 651.791C439.481 649.22 430.222 646.496 420.972 643.739C411.737 640.932 402.511 638.096 393.331 635.105C384.14 632.152 375 629.031 365.91 625.742ZM362.272 637.856C371.668 640.127 381.013 642.566 390.308 645.173C399.614 647.744 408.873 650.467 418.124 653.221C427.36 656.025 436.586 658.861 445.766 661.851C454.958 664.803 464.098 667.926 473.186 671.219C463.79 668.951 454.444 666.513 445.149 663.906C435.843 661.335 426.584 658.611 417.334 655.853C408.099 653.047 398.873 650.211 389.693 647.221C380.502 644.267 371.362 641.146 362.272 637.856Z" fill="#3086A3"/>
<path d="M662.521 361.937C684.22 289.677 630.125 209.535 557.925 187.817C485.726 166.1 396.449 203.115 374.749 275.375C366.37 303.279 381.975 527.715 381.975 527.715L517.495 568.48C517.495 568.48 654.142 389.84 662.521 361.937Z" fill="#4CB9D3"/>
<path d="M557.925 187.817C546.835 184.51 535.395 182.522 523.84 181.893C579.134 214.125 615.11 280.96 596.736 342.149C588.356 370.052 451.71 548.692 451.71 548.692L517.495 568.48C517.495 568.48 654.142 389.84 662.521 361.937C684.22 289.677 630.125 209.535 557.925 187.817Z" fill="#409CB5"/>
<path d="M589.626 201.681C579.64 195.83 568.999 191.177 557.925 187.817C485.726 166.1 396.449 203.115 374.749 275.375C366.37 303.279 381.975 527.715 381.975 527.715L447.76 547.504C447.76 547.504 432.156 323.067 440.535 295.164C458.91 233.975 525.74 198.064 589.626 201.681Z" fill="#409CB5"/>
<path d="M557.925 187.818C553.532 186.496 549.082 185.392 544.575 184.504C610.112 211.347 656.586 286.158 636.207 354.022C627.828 381.925 491.181 560.565 491.181 560.565L517.495 568.48C517.495 568.48 654.142 389.84 662.521 361.937C684.22 289.677 630.125 209.535 557.925 187.818Z" fill="#3086A3"/>
<path d="M570.889 192.419C566.643 190.68 562.322 189.146 557.925 187.817C485.726 166.1 396.449 203.115 374.749 275.375C366.37 303.279 381.975 527.715 381.975 527.715L408.289 535.631C408.289 535.631 392.684 311.194 401.064 283.291C421.443 215.427 501.425 178.654 570.889 192.419Z" fill="#3086A3"/>
<path d="M790.185 364.977C790.181 372.987 787.001 380.668 781.344 386.334C775.686 391.999 768.012 395.185 760.009 395.192H647.249C641.508 395.193 635.97 393.069 631.7 389.23C627.429 385.391 624.727 380.108 624.113 374.395C623.5 368.683 625.017 362.945 628.375 358.285C631.733 353.625 636.693 350.372 642.302 349.151C642.751 342.354 645.763 335.98 650.729 331.321C655.696 326.662 662.245 324.066 669.051 324.057C671.808 324.057 674.546 324.495 677.166 325.354C681.139 317.662 687.371 311.372 695.024 307.331C702.676 303.29 711.381 301.691 719.968 302.75C728.556 303.809 736.613 307.474 743.056 313.253C749.5 319.032 754.02 326.648 756.01 335.075C760.271 334.499 764.606 334.842 768.723 336.081C772.841 337.32 776.646 339.426 779.883 342.258C783.12 345.09 785.714 348.583 787.491 352.502C789.268 356.42 790.186 360.674 790.185 364.977V364.977ZM363.722 455.543C363.719 463.554 360.539 471.235 354.881 476.9C349.223 482.565 341.549 485.751 333.546 485.758H220.786C215.046 485.759 209.508 483.635 205.237 479.796C200.966 475.957 198.264 470.674 197.65 464.961C197.037 459.249 198.555 453.511 201.912 448.851C205.27 444.192 210.23 440.938 215.84 439.717C216.288 432.92 219.301 426.547 224.267 421.888C229.233 417.229 235.782 414.632 242.589 414.623C245.345 414.623 248.084 415.061 250.703 415.92C254.676 408.228 260.909 401.938 268.561 397.897C276.213 393.856 284.918 392.257 293.506 393.316C302.093 394.375 310.15 398.04 316.594 403.819C323.037 409.598 327.558 417.214 329.547 425.641C333.808 425.065 338.143 425.408 342.26 426.647C346.378 427.886 350.183 429.992 353.42 432.824C356.657 435.657 359.251 439.149 361.028 443.068C362.805 446.986 363.724 451.24 363.722 455.543V455.543Z" fill="#F9AE2B"/>
<path d="M172.526 307.223C183.002 307.223 191.495 298.723 191.495 288.239C191.495 277.754 183.002 269.254 172.526 269.254C162.05 269.254 153.558 277.754 153.558 288.239C153.558 298.723 162.05 307.223 172.526 307.223Z" fill="#B9D4DB"/>
<path d="M189.668 335.87C195.1 335.87 199.503 331.463 199.503 326.026C199.503 320.59 195.1 316.183 189.668 316.183C184.236 316.183 179.833 320.59 179.833 326.026C179.833 331.463 184.236 335.87 189.668 335.87Z" fill="#B9D4DB"/>
<path d="M162.986 365.357C168.418 365.357 172.822 360.95 172.822 355.513C172.822 350.077 168.418 345.669 162.986 345.669C157.554 345.669 153.151 350.077 153.151 355.513C153.151 360.95 157.554 365.357 162.986 365.357Z" fill="#B9D4DB"/>
<path d="M142.292 332.606C150.052 332.606 156.344 326.309 156.344 318.542C156.344 310.775 150.052 304.479 142.292 304.479C134.531 304.479 128.24 310.775 128.24 318.542C128.24 326.309 134.531 332.606 142.292 332.606Z" fill="#B9D4DB"/>
<path d="M636.617 165.221C647.093 165.221 655.586 156.721 655.586 146.237C655.586 135.752 647.093 127.252 636.617 127.252C626.141 127.252 617.648 135.752 617.648 146.237C617.648 156.721 626.141 165.221 636.617 165.221Z" fill="#B9D4DB"/>
<path d="M595.196 157.983C600.628 157.983 605.031 153.576 605.031 148.14C605.031 142.703 600.628 138.296 595.196 138.296C589.764 138.296 585.36 142.703 585.36 148.14C585.36 153.576 589.764 157.983 595.196 157.983Z" fill="#B9D4DB"/>
<path d="M577.742 122.243C583.174 122.243 587.577 117.836 587.577 112.399C587.577 106.963 583.174 102.556 577.742 102.556C572.31 102.556 567.907 106.963 567.907 112.399C567.907 117.836 572.31 122.243 577.742 122.243Z" fill="#B9D4DB"/>
<path d="M619.724 120.955C627.485 120.955 633.776 114.658 633.776 106.891C633.776 99.1241 627.485 92.8276 619.724 92.8276C611.964 92.8276 605.672 99.1241 605.672 106.891C605.672 114.658 611.964 120.955 619.724 120.955Z" fill="#B9D4DB"/>
<path d="M663.84 213.521H708.219" stroke="#B9D4DB" stroke-width="3" stroke-miterlimit="10" stroke-linecap="round"/>
<path d="M663.84 226.322H708.219" stroke="#B9D4DB" stroke-width="3" stroke-miterlimit="10" stroke-linecap="round"/>
<path d="M663.84 239.125H708.219" stroke="#B9D4DB" stroke-width="3" stroke-miterlimit="10" stroke-linecap="round"/>
<path d="M155.125 506.29H199.504" stroke="#B9D4DB" stroke-width="3" stroke-miterlimit="10" stroke-linecap="round"/>
<path d="M155.125 519.091H199.504" stroke="#B9D4DB" stroke-width="3" stroke-miterlimit="10" stroke-linecap="round"/>
<path d="M155.125 531.894H199.504" stroke="#B9D4DB" stroke-width="3" stroke-miterlimit="10" stroke-linecap="round"/>
<path d="M241.949 75.0542H286.329" stroke="#B9D4DB" stroke-width="3" stroke-miterlimit="10" stroke-linecap="round"/>
<path d="M241.949 87.8555H286.329" stroke="#B9D4DB" stroke-width="3" stroke-miterlimit="10" stroke-linecap="round"/>
<path d="M241.949 100.658H286.329" stroke="#B9D4DB" stroke-width="3" stroke-miterlimit="10" stroke-linecap="round"/>
<path d="M687.826 518.766C698.302 518.766 706.794 510.266 706.794 499.781C706.794 489.296 698.302 480.796 687.826 480.796C677.35 480.796 668.857 489.296 668.857 499.781C668.857 510.266 677.35 518.766 687.826 518.766Z" fill="#B9D4DB"/>
<path d="M637.768 523.325C643.2 523.325 647.603 518.918 647.603 513.481C647.603 508.045 643.2 503.638 637.768 503.638C632.336 503.638 627.933 508.045 627.933 513.481C627.933 518.918 632.336 523.325 637.768 523.325Z" fill="#B9D4DB"/>
<path d="M662.743 467.39C670.504 467.39 676.795 461.094 676.795 453.327C676.795 445.56 670.504 439.263 662.743 439.263C654.983 439.263 648.691 445.56 648.691 453.327C648.691 461.094 654.983 467.39 662.743 467.39Z" fill="#B9D4DB"/>
</svg>
