<svg width="803" height="695" viewBox="0 0 803 695" fill="none" xmlns="http://www.w3.org/2000/svg">
<g clip-path="url(#clip0_342_79)">
<path d="M587.778 295.218H606.091V303.027C606.091 305.461 605.125 307.796 603.406 309.517C601.688 311.238 599.357 312.205 596.926 312.205C594.495 312.205 592.164 311.238 590.446 309.517C588.727 307.796 587.761 305.461 587.761 303.027V295.218H587.778Z" fill="#FFCD52"/>
<path d="M618.618 339.361H581.168L567.289 287.542L628.492 282.474L618.618 339.361Z" stroke="#F46534" stroke-linecap="round" stroke-linejoin="round"/>
<path d="M581.168 339.362L586.69 285.941L597.899 339.362L606.882 284.257L618.618 339.362H589.673" stroke="#F46534" stroke-linecap="round" stroke-linejoin="round"/>
<path d="M298.941 596.891H328.116V612.145C328.116 613.695 327.811 615.23 327.219 616.662C326.627 618.094 325.759 619.395 324.664 620.491C323.57 621.587 322.271 622.457 320.841 623.05C319.411 623.643 317.878 623.948 316.331 623.948H310.726C309.179 623.948 307.646 623.643 306.216 623.05C304.786 622.457 303.487 621.587 302.393 620.491C301.298 619.395 300.43 618.094 299.838 616.662C299.246 615.23 298.941 613.695 298.941 612.145V596.891V596.891Z" fill="#FFCD52"/>
<path d="M352.182 669.016H288.738L265.216 595.323L368.929 588.109L352.182 669.016Z" stroke="#F46534" stroke-width="2" stroke-linecap="round" stroke-linejoin="round"/>
<path d="M288.738 669.016L298.084 593.045L317.073 669.016L332.32 590.667L352.182 669.016H303.144" stroke="#F46534" stroke-width="2" stroke-linecap="round" stroke-linejoin="round"/>
<path d="M360.044 695H280.826V660.844C306.957 666.24 333.913 666.24 360.044 660.844V695Z" fill="#FFCD52"/>
<path d="M289.545 662.445C290.19 665.047 290.62 667.697 290.831 670.369C291.078 673.011 291.21 675.652 291.194 678.293C291.177 680.935 291.078 683.576 290.848 686.217C290.631 688.89 290.195 691.54 289.545 694.141C288.909 691.538 288.479 688.889 288.26 686.217C288.029 683.576 287.897 680.935 287.913 678.293C287.93 675.652 288.029 673.011 288.276 670.369C288.482 667.698 288.906 665.048 289.545 662.445V662.445ZM297.738 695C297.098 692.42 296.674 689.792 296.468 687.142C296.221 684.517 296.089 681.909 296.089 679.284C296.089 676.659 296.221 674.051 296.452 671.426C296.671 668.777 297.101 666.149 297.738 663.568C298.39 666.146 298.82 668.775 299.023 671.426C299.507 676.653 299.507 681.914 299.023 687.142C298.812 689.792 298.382 692.421 297.738 695V695ZM305.913 695C305.27 692.487 304.84 689.925 304.628 687.34C304.144 682.239 304.144 677.104 304.628 672.004C304.831 669.418 305.261 666.854 305.913 664.344C306.549 666.858 306.979 669.42 307.199 672.004C307.43 674.563 307.562 677.121 307.562 679.664C307.562 682.206 307.43 684.781 307.182 687.34C306.975 689.925 306.551 692.487 305.913 695ZM313.182 695C312.546 692.519 312.116 689.991 311.897 687.439C311.666 684.913 311.534 682.404 311.534 679.878C311.534 677.352 311.649 674.827 311.897 672.317C312.107 669.765 312.537 667.235 313.182 664.757C313.828 667.235 314.258 669.765 314.468 672.317C314.721 674.83 314.842 677.353 314.831 679.878C314.831 682.404 314.699 684.913 314.468 687.439C314.248 689.991 313.818 692.519 313.182 695V695ZM320.435 695C319.799 692.531 319.369 690.013 319.149 687.472C318.919 684.963 318.787 682.52 318.787 679.944C318.787 677.369 318.919 674.992 319.149 672.417C319.361 669.875 319.791 667.356 320.435 664.889C321.079 667.356 321.509 669.875 321.721 672.417C321.973 674.918 322.094 677.43 322.083 679.944C322.083 682.454 321.951 684.897 321.721 687.472C321.501 690.013 321.071 692.531 320.435 695V695ZM328.116 695C327.474 692.521 327.043 689.991 326.831 687.439C326.578 684.921 326.457 682.392 326.468 679.862C326.468 677.336 326.583 674.827 326.814 672.301C327.031 669.743 327.467 667.208 328.116 664.724C328.752 667.21 329.182 669.744 329.402 672.301C329.633 674.827 329.765 677.336 329.748 679.862C329.759 682.392 329.638 684.921 329.385 687.439C329.178 689.991 328.754 692.52 328.116 695V695ZM336.259 695C335.613 692.477 335.183 689.903 334.973 687.307C334.49 682.195 334.49 677.049 334.973 671.938C335.177 669.346 335.607 666.778 336.259 664.261C336.895 666.781 337.325 669.348 337.545 671.938C337.775 674.513 337.907 677.072 337.907 679.631C337.907 682.189 337.775 684.748 337.528 687.307C337.324 689.903 336.899 692.476 336.259 695ZM344.501 695C343.861 692.403 343.437 689.759 343.231 687.092C342.984 684.468 342.852 681.826 342.852 679.201C342.852 676.577 342.984 673.935 343.215 671.294C343.435 668.634 343.865 665.995 344.501 663.403C345.152 665.992 345.582 668.632 345.786 671.294C346.034 673.935 346.165 676.56 346.149 679.201C346.132 681.843 346.034 684.468 345.786 687.092C345.575 689.759 345.145 692.404 344.501 695V695ZM353.204 662.132C353.843 664.846 354.273 667.606 354.49 670.386C354.72 673.126 354.852 675.85 354.852 678.64C354.852 681.43 354.737 684.121 354.49 686.894C354.283 689.676 353.853 692.436 353.204 695.148C352.555 692.436 352.125 689.676 351.918 686.894C351.687 684.154 351.555 681.414 351.555 678.64C351.555 675.867 351.687 673.176 351.918 670.386C352.135 667.606 352.565 664.846 353.204 662.132V662.132Z" fill="#F46534"/>
<path d="M280.826 677.914C287.419 677.237 294.012 676.874 300.606 676.643C307.199 676.412 313.792 676.296 320.386 676.263C326.979 676.23 333.572 676.362 340.166 676.626C346.759 676.891 353.352 677.237 359.945 677.914C353.352 678.607 346.759 678.971 340.166 679.202C333.572 679.433 326.979 679.532 320.386 679.565C313.792 679.598 307.199 679.466 300.606 679.202C294.012 678.938 287.419 678.607 280.826 677.914Z" fill="#F46534"/>
<path d="M318.408 601.563C313.726 503.261 309.6 404.932 306.029 306.576C304.622 267.88 303.304 229.201 302.073 190.539C303.869 190.539 305.666 190.423 307.479 190.423C393.769 190.423 463.757 269.399 463.757 366.798C463.757 416.026 445.856 460.516 417.044 492.525C373.94 541.671 368.913 588.109 368.913 588.109C353.352 597.485 335.171 600.903 318.408 601.563Z" fill="#E5E5E5"/>
<path d="M307.479 190.423C306.259 190.423 305.056 190.423 303.853 190.423H302.073C303.314 229.097 304.633 267.776 306.029 306.46C309.611 404.817 313.737 503.146 318.408 601.447C300.469 601.956 282.552 599.854 265.216 595.207C252.722 543.272 209.816 504.411 209.816 504.411C174.03 472.105 151.119 422.448 151.119 366.732C151.119 271.364 218.189 193.675 302.007 190.473H303.787C305.056 190.44 306.259 190.423 307.479 190.423Z" fill="#008EF8"/>
<path d="M294.474 600.705C295.858 583.14 289.529 558.328 282.161 536.14C273.056 509.756 259.201 485.266 241.282 463.884C180.904 390.504 194.058 277.67 201.178 237.538C170.421 269.746 151.185 315.754 151.185 366.831C151.185 422.547 174.096 472.204 209.882 504.511C209.882 504.511 252.738 543.421 265.282 595.306C274.846 597.916 284.61 599.722 294.474 600.705V600.705Z" fill="#E5E5E5"/>
<path d="M343.693 598.228C339.176 580.878 344.006 552.88 350.451 527.969C357.662 500.994 369.746 475.569 386.104 452.955C436.181 382.498 423.258 283.761 413.038 236.696C444.208 268.921 463.757 315.243 463.757 366.732C463.757 415.96 445.856 460.45 417.044 492.46C373.94 541.605 368.912 588.043 368.912 588.043C361.075 592.71 352.57 596.145 343.693 598.228Z" fill="#008EF8"/>
<path d="M152.75 341.887C155.797 344.793 159.537 346.868 163.613 347.913C167.671 348.928 171.932 348.78 175.91 347.484L178.827 346.394L181.563 344.875C182.008 344.611 182.486 344.397 182.898 344.099L184.151 343.158L186.64 341.277C188.157 339.84 189.673 338.421 191.124 336.918L195.162 332.131C195.248 332.047 195.363 332 195.483 332C195.603 332 195.719 332.047 195.805 332.131C202.892 339.663 211.547 345.542 221.156 349.349C230.752 353.14 241.093 354.654 251.37 353.773C256.483 353.268 261.535 352.262 266.452 350.769C268.875 349.927 271.397 349.118 273.705 348.128C274.892 347.632 276.095 347.17 277.249 346.625L280.727 344.974C289.896 340.223 298.462 334.387 306.243 327.591C306.392 327.463 306.582 327.393 306.779 327.393C306.975 327.393 307.165 327.463 307.314 327.591V327.591C315.22 334.307 323.977 339.946 333.358 344.364C342.716 348.907 352.728 351.954 363.028 353.394C373.301 354.863 383.761 354.302 393.819 351.743C403.878 349.029 413.37 344.528 421.84 338.454C421.913 338.402 421.999 338.375 422.087 338.375C422.176 338.375 422.262 338.402 422.335 338.454C425.212 340.594 428.3 342.436 431.549 343.951C434.799 345.498 438.217 346.661 441.736 347.418C445.27 348.121 448.899 348.216 452.466 347.698C455.995 347.047 459.358 345.694 462.356 343.72C459.372 345.76 456.009 347.181 452.466 347.896C448.882 348.507 445.221 348.507 441.637 347.896C438.066 347.197 434.587 346.089 431.269 344.595C427.938 343.108 424.763 341.294 421.791 339.18H422.285C413.799 345.415 404.263 350.073 394.132 352.931C383.931 355.687 373.284 356.377 362.814 354.962C352.383 353.522 342.24 350.464 332.748 345.899C323.203 341.446 314.291 335.745 306.243 328.945H307.314C299.435 335.825 290.744 341.713 281.436 346.477L277.908 348.128C276.721 348.672 275.502 349.135 274.298 349.646C271.908 350.703 269.353 351.446 266.914 352.304C261.885 353.799 256.724 354.805 251.502 355.309C246.274 355.736 241.014 355.559 235.826 354.78C230.64 353.978 225.566 352.565 220.711 350.571C210.979 346.615 202.247 340.542 195.146 332.791H195.838L191.701 337.595C190.201 339.097 188.618 340.517 187.069 341.937L184.613 343.687L183.327 344.611C182.882 344.925 182.387 345.123 181.942 345.387L179.124 346.873L176.124 347.929C172.061 349.171 167.732 349.246 163.629 348.144C159.526 347.03 155.779 344.875 152.75 341.887V341.887ZM157.745 417.495C161.927 420.126 166.525 422.025 171.344 423.108C176.138 424.215 181.107 424.333 185.948 423.455C190.756 422.504 195.304 420.528 199.283 417.661C203.259 414.8 206.783 411.355 209.733 407.442C209.772 407.389 209.821 407.345 209.878 407.312C209.934 407.279 209.997 407.258 210.062 407.251C210.126 407.243 210.192 407.248 210.255 407.267C210.317 407.286 210.376 407.317 210.426 407.359L210.524 407.442C213.38 411.048 216.817 414.15 220.695 416.62C224.555 419.135 228.773 421.05 233.205 422.299C242.126 424.673 251.504 424.73 260.452 422.464C269.409 420.154 277.971 416.515 285.853 411.668C293.748 406.861 301.235 401.412 308.237 395.374C308.318 395.303 308.412 395.248 308.514 395.213C308.616 395.178 308.724 395.164 308.832 395.172C308.939 395.18 309.044 395.209 309.14 395.258C309.236 395.307 309.322 395.374 309.391 395.457C315.266 402.65 322.269 408.839 330.127 413.781C337.96 418.777 346.716 422.145 355.874 423.686C365.064 425.052 374.442 424.365 383.335 421.672C392.188 418.85 400.534 414.631 408.06 409.175C408.133 409.126 408.219 409.1 408.307 409.1C408.395 409.1 408.481 409.126 408.555 409.175C412.358 411.203 416.296 412.968 420.34 414.458C424.369 415.988 428.522 417.17 432.752 417.991C436.985 418.856 441.321 419.106 445.626 418.734C449.947 418.39 454.112 416.965 457.741 414.59C454.139 417.045 449.978 418.555 445.642 418.981C441.317 419.444 436.947 419.277 432.67 418.486C428.387 417.741 424.174 416.637 420.077 415.184C415.967 413.751 411.967 412.019 408.11 410.001H408.604C401.02 415.623 392.583 419.988 383.615 422.927C374.567 425.797 364.985 426.571 355.594 425.188C346.218 423.646 337.248 420.227 329.221 415.135C321.261 410.099 314.174 403.798 308.237 396.48L309.424 396.612C302.337 402.747 294.744 408.269 286.727 413.121C278.698 418.007 269.987 421.668 260.881 423.983C251.669 426.308 242.011 426.189 232.859 423.637C228.322 422.317 224.013 420.307 220.085 417.677C216.119 415.094 212.615 411.863 209.717 408.119H210.524C207.476 412.077 203.847 415.55 199.761 418.42C195.649 421.263 190.97 423.178 186.047 424.033C181.111 424.851 176.061 424.637 171.212 423.405C166.421 422.213 161.867 420.215 157.745 417.495V417.495ZM190.843 484.139C195.642 486.507 200.754 488.175 206.024 489.092C211.259 490.038 216.617 490.077 221.865 489.208C224.472 488.753 227.031 488.063 229.513 487.144C231.96 486.154 234.316 484.95 236.552 483.545C240.976 480.614 244.876 476.959 248.09 472.732C248.184 472.614 248.316 472.533 248.464 472.503C248.611 472.473 248.765 472.496 248.898 472.567C253.813 475.304 259.124 477.259 264.639 478.362C270.147 479.51 275.808 479.722 281.386 478.989C286.946 478.228 292.33 476.496 297.292 473.871C302.246 471.215 306.806 467.881 310.842 463.966C310.918 463.889 311.009 463.828 311.11 463.786C311.21 463.744 311.318 463.722 311.427 463.722C311.536 463.722 311.643 463.744 311.744 463.786C311.844 463.828 311.935 463.889 312.012 463.966V463.966C315.709 468.663 320.44 472.44 325.836 475.003C331.231 477.566 337.145 478.845 343.116 478.741C349.107 478.552 355.017 477.3 360.572 475.043C366.175 472.835 371.511 469.999 376.478 466.591C376.574 466.515 376.693 466.473 376.816 466.473C376.939 466.473 377.058 466.515 377.154 466.591C380.66 469.474 384.349 472.126 388.198 474.532C392.044 476.955 396.072 479.075 400.247 480.871C404.429 482.723 408.882 483.888 413.434 484.321C417.999 484.778 422.585 483.685 426.456 481.218C422.617 483.795 418.026 485.01 413.417 484.668C408.834 484.327 404.334 483.263 400.082 481.515C395.818 479.811 391.709 477.74 387.802 475.324C383.873 472.946 380.101 470.316 376.511 467.45H377.187C372.196 470.984 366.821 473.942 361.165 476.265C355.465 478.616 349.392 479.93 343.231 480.145C337.017 480.289 330.854 478.991 325.224 476.353C319.593 473.716 314.649 469.81 310.776 464.94L312.012 465.056C307.865 469.081 303.17 472.499 298.067 475.208C292.92 477.897 287.341 479.658 281.584 480.409C275.843 481.14 270.02 480.9 264.359 479.699C258.69 478.536 253.246 476.462 248.238 473.558L249.062 473.409C245.732 477.693 241.703 481.382 237.145 484.321C234.838 485.743 232.405 486.948 229.876 487.92C227.335 488.833 224.713 489.501 222.046 489.917C216.704 490.659 211.274 490.481 205.992 489.389C200.717 488.375 195.616 486.607 190.843 484.139ZM242.65 545.204C246.13 546.046 249.687 546.522 253.266 546.623C256.817 546.744 260.369 546.439 263.848 545.716C267.305 544.986 270.611 543.668 273.622 541.82C276.581 539.936 279.163 537.518 281.238 534.688C281.331 534.565 281.462 534.475 281.611 534.434C281.76 534.392 281.918 534.4 282.062 534.457C284.734 535.483 287.492 536.267 290.304 536.801C293.09 537.339 295.922 537.599 298.759 537.577C301.551 537.525 304.323 537.097 307.001 536.306C309.666 535.449 312.168 534.149 314.402 532.459C314.553 532.342 314.738 532.278 314.93 532.278C315.121 532.278 315.306 532.342 315.457 532.459C317.694 534.32 320.215 535.808 322.924 536.867C325.627 537.977 328.496 538.63 331.413 538.799C334.334 538.986 337.266 538.708 340.1 537.973C341.519 537.619 342.913 537.167 344.27 536.619C345.638 536.075 346.94 535.381 348.275 534.771C348.401 534.712 348.542 534.695 348.678 534.722C348.815 534.749 348.939 534.818 349.034 534.919C351.235 537.284 353.715 539.374 356.418 541.143C359.118 542.932 362.068 544.312 365.171 545.237C368.288 546.154 371.57 546.368 374.78 545.864L377.17 545.369L379.445 544.527C380.22 544.262 380.961 543.908 381.654 543.47L383.813 542.282C381.141 544.243 378.085 545.615 374.846 546.31C371.57 546.948 368.194 546.858 364.956 546.046C361.742 545.165 358.676 543.814 355.858 542.034C353.017 540.27 350.399 538.169 348.061 535.777L348.869 535.91C347.484 536.586 346.165 537.346 344.748 537.924C343.336 538.516 341.881 539.002 340.396 539.376C335.908 540.554 331.205 540.653 326.671 539.666C322.137 538.679 317.899 536.634 314.303 533.697H315.358C312.971 535.506 310.288 536.886 307.43 537.775C304.577 538.596 301.628 539.029 298.661 539.063C295.721 539.056 292.789 538.757 289.908 538.171C287.019 537.601 284.189 536.766 281.452 535.678L282.293 535.447C280.022 538.367 277.227 540.836 274.051 542.728C270.899 544.559 267.461 545.843 263.881 546.524C260.317 547.145 256.691 547.322 253.084 547.053C249.547 546.84 246.046 546.219 242.65 545.204V545.204ZM166.3 287.674C169.198 287.101 172.027 286.221 174.739 285.049C177.454 283.9 180.086 282.565 182.618 281.054C185.138 279.517 187.56 277.824 189.871 275.986C191.058 275.111 192.113 274.104 193.168 273.163C194.222 272.222 195.31 271.133 196.464 270.126C196.533 270.066 196.621 270.034 196.711 270.034C196.802 270.034 196.89 270.066 196.959 270.126V270.126C200.935 273.16 205.217 275.771 209.733 277.918C214.233 280.114 218.944 281.845 223.793 283.085C233.481 285.657 243.622 286.007 253.463 284.108C263.243 282.102 272.51 278.113 280.694 272.387C288.932 266.694 296.382 259.933 302.847 252.28C302.986 252.13 303.175 252.035 303.378 252.014C303.581 251.993 303.785 252.046 303.952 252.165V252.165C312.279 258.345 321.157 263.744 330.473 268.293C339.748 272.934 349.535 276.469 359.632 278.826C369.701 281.291 380.15 281.79 390.407 280.295C395.511 279.404 400.491 277.908 405.242 275.838C409.935 273.668 414.36 270.958 418.428 267.765C418.453 267.74 418.482 267.719 418.515 267.706C418.547 267.692 418.582 267.685 418.618 267.685C418.653 267.685 418.688 267.692 418.721 267.706C418.753 267.719 418.783 267.74 418.807 267.765V267.765C420.071 269.419 421.539 270.905 423.175 272.189C424.809 273.494 426.632 274.541 428.582 275.293C430.537 276.035 432.627 276.35 434.714 276.217C436.81 276.077 438.862 275.545 440.763 274.649C438.876 275.58 436.828 276.14 434.73 276.3C432.655 276.538 430.553 276.33 428.565 275.689C426.572 274.961 424.7 273.937 423.011 272.651C421.31 271.373 419.781 269.881 418.461 268.211H418.84C410.779 275.036 401.052 279.594 390.654 281.417C380.241 283.075 369.606 282.699 359.336 280.311C349.116 277.968 339.207 274.427 329.814 269.763C320.377 265.209 311.382 259.788 302.946 253.568L304.067 253.452C297.504 261.206 289.924 268.037 281.534 273.758C273.148 279.561 263.661 283.579 253.661 285.561C243.632 287.438 233.307 286.986 223.48 284.24C218.585 282.918 213.836 281.104 209.305 278.826C204.749 276.604 200.449 273.892 196.481 270.737H196.992C195.887 271.744 194.799 272.767 193.695 273.725C192.591 274.682 191.437 275.656 190.217 276.514C187.857 278.312 185.391 279.966 182.832 281.467C180.252 282.933 177.575 284.223 174.822 285.33C172.073 286.413 169.216 287.199 166.3 287.674V287.674Z" fill="#686868"/>
<path d="M200.552 277.538C200.587 278.081 200.511 278.625 200.327 279.137C200.144 279.649 199.858 280.118 199.486 280.515C199.115 280.912 198.666 281.228 198.167 281.445C197.669 281.661 197.131 281.772 196.588 281.772C196.045 281.772 195.507 281.661 195.009 281.445C194.511 281.228 194.062 280.912 193.69 280.515C193.319 280.118 193.032 279.649 192.849 279.137C192.665 278.625 192.589 278.081 192.624 277.538C192.624 275.342 196.58 270.274 196.58 270.274C196.58 270.274 200.552 275.342 200.552 277.538ZM307.512 260.122C307.547 260.664 307.471 261.209 307.287 261.721C307.104 262.233 306.818 262.702 306.446 263.099C306.075 263.496 305.626 263.812 305.127 264.028C304.629 264.245 304.091 264.356 303.548 264.356C303.005 264.356 302.467 264.245 301.969 264.028C301.471 263.812 301.022 263.496 300.65 263.099C300.279 262.702 299.992 262.233 299.809 261.721C299.626 261.209 299.549 260.664 299.584 260.122C299.584 257.942 303.556 252.858 303.556 252.858C303.556 252.858 307.512 257.942 307.512 260.122ZM422.747 275.293C422.782 275.836 422.705 276.38 422.522 276.892C422.339 277.404 422.052 277.873 421.681 278.27C421.309 278.667 420.86 278.983 420.362 279.2C419.864 279.416 419.326 279.527 418.783 279.527C418.24 279.527 417.702 279.416 417.204 279.2C416.705 278.983 416.256 278.667 415.885 278.27C415.513 277.873 415.227 277.404 415.044 276.892C414.86 276.38 414.784 275.836 414.819 275.293C414.819 273.114 418.791 268.029 418.791 268.029C418.791 268.029 422.747 273.114 422.747 275.293ZM199.448 339.659C199.483 340.202 199.406 340.746 199.223 341.258C199.04 341.77 198.753 342.239 198.382 342.636C198.01 343.033 197.561 343.349 197.063 343.565C196.564 343.782 196.027 343.893 195.484 343.893C194.94 343.893 194.403 343.782 193.905 343.565C193.406 343.349 192.957 343.033 192.586 342.636C192.214 342.239 191.928 341.77 191.744 341.258C191.561 340.746 191.484 340.202 191.519 339.659C191.519 337.463 195.492 332.378 195.492 332.378C195.492 332.378 199.448 337.463 199.448 339.659ZM214.052 415.118C214.052 416.173 213.634 417.185 212.889 417.931C212.144 418.677 211.133 419.097 210.08 419.097C209.026 419.097 208.016 418.677 207.271 417.931C206.526 417.185 206.107 416.173 206.107 415.118C206.107 412.923 210.08 407.854 210.08 407.854C210.08 407.854 214.052 412.923 214.052 415.118ZM312.573 403.315C312.608 403.858 312.531 404.402 312.348 404.914C312.164 405.426 311.878 405.895 311.506 406.292C311.135 406.689 310.686 407.005 310.188 407.221C309.689 407.438 309.152 407.549 308.609 407.549C308.065 407.549 307.528 407.438 307.029 407.221C306.531 407.005 306.082 406.689 305.711 406.292C305.339 405.895 305.053 405.426 304.869 404.914C304.686 404.402 304.609 403.858 304.644 403.315C304.644 401.119 308.6 396.035 308.6 396.035C308.6 396.035 312.573 401.152 312.573 403.315ZM412.346 416.686C412.281 417.695 411.835 418.641 411.099 419.333C410.363 420.024 409.391 420.409 408.382 420.409C407.373 420.409 406.401 420.024 405.665 419.333C404.929 418.641 404.483 417.695 404.418 416.686C404.418 414.491 408.374 409.406 408.374 409.406C408.374 409.406 412.346 414.491 412.346 416.686ZM380.764 474.433C380.799 474.975 380.723 475.52 380.539 476.032C380.356 476.544 380.069 477.013 379.698 477.41C379.326 477.807 378.877 478.123 378.379 478.339C377.881 478.556 377.343 478.667 376.8 478.667C376.257 478.667 375.719 478.556 375.221 478.339C374.722 478.123 374.273 477.807 373.902 477.41C373.53 477.013 373.244 476.544 373.061 476.032C372.877 475.52 372.801 474.975 372.836 474.433C372.836 472.237 376.792 467.169 376.792 467.169C376.792 467.169 380.764 472.237 380.764 474.433ZM315.358 471.775C315.293 472.783 314.848 473.73 314.111 474.421C313.375 475.112 312.403 475.497 311.394 475.497C310.385 475.497 309.413 475.112 308.677 474.421C307.941 473.73 307.495 472.783 307.43 471.775C307.43 469.579 311.386 464.494 311.386 464.494C311.386 464.494 315.358 469.579 315.358 471.775ZM252.491 480.491C252.426 481.5 251.98 482.446 251.244 483.137C250.508 483.829 249.536 484.213 248.527 484.213C247.518 484.213 246.546 483.829 245.81 483.137C245.074 482.446 244.628 481.5 244.563 480.491C244.563 478.295 248.519 473.211 248.519 473.211C248.519 473.211 252.491 478.295 252.491 480.491ZM286.809 541.753C286.882 542.269 286.852 542.795 286.722 543.299C286.592 543.804 286.364 544.277 286.051 544.694C285.738 545.11 285.346 545.46 284.898 545.725C284.45 545.989 283.954 546.163 283.439 546.235C282.923 546.308 282.399 546.278 281.895 546.148C281.392 546.018 280.918 545.789 280.503 545.476C280.087 545.162 279.737 544.77 279.473 544.321C279.209 543.872 279.036 543.375 278.963 542.859C278.65 540.68 281.881 535.101 281.881 535.101C281.881 535.101 286.579 539.591 286.809 541.753ZM319.265 540.169C319.253 541.189 318.851 542.165 318.141 542.897C317.431 543.628 316.467 544.058 315.45 544.098C314.432 544.139 313.437 543.786 312.672 543.113C311.907 542.44 311.428 541.498 311.337 540.482C311.337 538.287 315.012 533.054 315.012 533.054C315.012 533.054 319.166 537.973 319.265 540.169ZM351.836 542.925C351.724 543.962 351.211 544.914 350.406 545.575C349.601 546.237 348.569 546.555 347.532 546.462C346.495 546.369 345.536 545.872 344.861 545.078C344.186 544.284 343.85 543.256 343.924 542.216C344.122 540.037 348.539 535.332 348.539 535.332C348.539 535.332 352.034 540.746 351.836 542.925ZM310.842 335.416C310.842 336.471 310.423 337.483 309.679 338.229C308.934 338.975 307.923 339.394 306.87 339.394C305.816 339.394 304.806 338.975 304.061 338.229C303.316 337.483 302.897 336.471 302.897 335.416C302.897 333.22 306.87 328.136 306.87 328.136C306.87 328.136 310.842 333.22 310.842 335.416ZM425.945 345.866C425.88 346.874 425.434 347.821 424.698 348.512C423.961 349.203 422.99 349.588 421.981 349.588C420.971 349.588 420 349.203 419.264 348.512C418.527 347.821 418.081 346.874 418.016 345.866C418.016 343.67 421.989 338.586 421.989 338.586C421.989 338.586 425.945 343.67 425.945 345.866Z" fill="#FDA01F"/>
<path d="M623.497 356.81H573.75V335.35C590.161 338.734 607.087 338.734 623.497 335.35V335.35V356.81Z" fill="#FFCD52"/>
<path d="M579.239 336.373C580.338 342.964 580.338 349.692 579.239 356.282C578.649 353.015 578.373 349.698 578.415 346.377C578.375 343.024 578.651 339.675 579.239 336.373V336.373ZM584.382 356.811C583.795 353.543 583.519 350.226 583.558 346.906C583.51 343.585 583.786 340.268 584.382 337.001C585.48 343.531 585.48 350.198 584.382 356.728V356.811ZM589.509 356.811C588.41 350.442 588.41 343.931 589.509 337.562C590.607 343.931 590.607 350.442 589.509 356.811V356.811ZM594.107 356.811C593.008 350.53 593.008 344.106 594.107 337.826C595.206 344.106 595.206 350.53 594.107 356.811ZM598.624 356.811C598.048 353.697 597.772 350.535 597.8 347.368C597.763 344.195 598.039 341.027 598.624 337.909C599.217 341.026 599.493 344.195 599.448 347.368C599.484 350.535 599.208 353.698 598.624 356.811ZM603.437 356.811C602.338 350.525 602.338 344.096 603.437 337.81C604.536 344.096 604.536 350.525 603.437 356.811V356.811ZM608.497 356.811C607.398 350.425 607.398 343.898 608.497 337.512C609.596 343.898 609.596 350.425 608.497 356.811ZM613.772 356.811C613.188 353.542 612.912 350.226 612.948 346.906C612.904 343.585 613.18 340.268 613.772 337.001C614.355 340.269 614.631 343.585 614.596 346.906C614.623 350.226 614.347 353.541 613.772 356.811V356.811ZM619.195 336.175C620.294 343.01 620.294 349.976 619.195 356.811C618.096 349.976 618.096 343.01 619.195 336.175V336.175Z" fill="#F46534"/>
<path d="M573.75 346.08C577.904 345.75 581.992 345.585 586.195 345.453C590.399 345.321 594.437 345.288 598.624 345.255C602.811 345.222 606.865 345.255 611.069 345.453L617.283 345.684C619.343 345.816 621.42 345.899 623.497 346.08C621.42 346.278 619.343 346.361 617.283 346.493L611.069 346.724C606.915 346.873 602.827 346.889 598.624 346.906C594.421 346.922 590.382 346.906 586.195 346.724C582.009 346.542 577.904 346.427 573.75 346.08Z" fill="#F46534"/>
<path d="M597.355 298.14C594.41 236.421 591.816 174.685 589.575 112.933C588.695 88.633 587.871 64.3493 587.102 40.0821C588.223 40.0821 589.344 39.9995 590.498 39.9995C644.678 39.9995 688.606 89.5244 688.606 150.737C688.606 181.657 677.365 209.589 659.282 229.68C632.217 260.551 629.052 289.704 629.052 289.704C619.294 295.598 607.871 297.76 597.355 298.14Z" fill="#E5E5E5"/>
<path d="M590.497 39.9995C589.722 39.9995 588.964 39.9995 588.206 39.9995H587.102C587.871 64.2887 588.695 88.5725 589.574 112.851C591.772 174.603 594.365 236.338 597.354 298.057C586.092 298.382 574.843 297.064 563.959 294.145C556.113 261.624 529.113 237.191 529.113 237.191C506.647 216.903 492.257 185.718 492.257 150.737C492.257 90.8781 534.372 42.0796 587.003 40.1316H588.107C588.964 40.016 589.722 39.9995 590.497 39.9995Z" fill="#FF5061"/>
<path d="M582.322 297.612C583.195 286.584 579.256 271 574.591 257.067C568.868 240.494 560.158 225.112 548.894 211.686C510.982 165.611 519.224 94.7576 523.724 69.5659C504.389 89.7886 492.356 118.678 492.356 150.737C492.356 185.718 506.746 216.903 529.213 237.191C529.213 237.191 556.163 261.624 564.009 294.228C570.009 295.864 576.134 296.996 582.322 297.612V297.612Z" fill="#E5E5E5"/>
<path d="M613.178 296.06C610.343 285.165 613.376 267.583 617.431 251.934C621.951 234.997 629.532 219.034 639.799 204.835C671.249 160.593 663.139 98.6044 656.727 69.104C676.276 89.3267 688.556 118.414 688.556 150.738C688.556 181.658 677.315 209.59 659.233 229.68C632.167 260.551 629.002 289.705 629.002 289.705C624.077 292.609 618.743 294.752 613.178 296.06V296.06Z" fill="#FF5061"/>
<path d="M493.345 135.104C495.269 136.909 497.625 138.188 500.185 138.818C502.717 139.448 505.375 139.345 507.85 138.521C510.304 137.653 512.574 136.331 514.542 134.625C515.482 133.717 516.421 132.826 517.328 131.885L519.85 128.88C519.891 128.837 519.941 128.802 519.997 128.779C520.052 128.755 520.111 128.743 520.171 128.743C520.231 128.743 520.291 128.755 520.346 128.779C520.401 128.802 520.451 128.837 520.493 128.88V128.88C524.934 133.576 530.353 137.234 536.366 139.594C542.365 141.942 548.823 142.874 555.24 142.318C558.43 141.995 561.582 141.365 564.651 140.436C567.712 139.456 570.689 138.23 573.552 136.771C579.287 133.792 584.644 130.134 589.508 125.876C589.656 125.745 589.847 125.672 590.044 125.672C590.241 125.672 590.432 125.745 590.58 125.876V125.876C595.52 130.074 600.99 133.604 606.849 136.375C612.708 139.194 618.97 141.082 625.409 141.971C631.833 142.882 638.373 142.529 644.661 140.931C650.949 139.255 656.884 136.459 662.183 132.677C662.255 132.626 662.342 132.599 662.43 132.599C662.519 132.599 662.605 132.626 662.678 132.677C664.475 134.021 666.402 135.183 668.43 136.144C670.456 137.113 672.585 137.849 674.776 138.34C676.985 138.785 679.254 138.852 681.485 138.538C683.723 138.162 685.861 137.331 687.765 136.094C685.891 137.403 683.771 138.319 681.534 138.785C679.271 139.173 676.958 139.173 674.694 138.785C672.423 138.359 670.21 137.666 668.101 136.722C665.997 135.822 663.987 134.716 662.101 133.42H662.595C657.262 137.362 651.266 140.314 644.892 142.136C638.455 143.909 631.727 144.359 625.112 143.457C618.531 142.569 612.129 140.653 606.14 137.778C600.158 134.97 594.571 131.384 589.525 127.114H590.613C585.641 131.445 580.161 135.154 574.294 138.158C571.34 139.644 568.269 140.886 565.113 141.872C561.94 142.814 558.683 143.445 555.388 143.754C548.761 144.31 542.097 143.268 535.954 140.717C529.821 138.202 524.321 134.357 519.85 129.458H520.542L517.921 132.479C516.982 133.42 515.976 134.311 515.004 135.203C512.925 136.903 510.55 138.201 507.998 139.033C505.428 139.808 502.692 139.842 500.103 139.132C497.542 138.393 495.215 137.006 493.345 135.104V135.104ZM496.477 182.582C499.118 184.194 502.009 185.354 505.031 186.016C508.025 186.708 511.132 186.759 514.147 186.164C517.129 185.582 519.945 184.341 522.388 182.532L523.328 181.888C523.625 181.657 523.905 181.393 524.185 181.146L525.833 179.61C526.905 178.521 527.844 177.316 528.866 176.177C528.914 176.129 528.97 176.091 529.032 176.065C529.095 176.039 529.161 176.025 529.229 176.025C529.296 176.025 529.363 176.039 529.425 176.065C529.487 176.091 529.544 176.129 529.592 176.177C529.592 176.177 529.592 176.177 529.592 176.177C533.295 180.678 538.317 183.9 543.948 185.388C549.517 186.824 555.358 186.824 560.926 185.388C566.517 183.931 571.861 181.65 576.783 178.62C581.739 175.597 586.436 172.168 590.827 168.368C590.909 168.297 591.003 168.244 591.106 168.21C591.209 168.177 591.317 168.164 591.425 168.174C591.532 168.183 591.637 168.214 591.732 168.264C591.828 168.314 591.912 168.384 591.981 168.467V168.467C595.638 172.959 600.003 176.824 604.904 179.907C609.783 183.04 615.244 185.151 620.958 186.115C626.692 186.982 632.547 186.565 638.101 184.893C643.665 183.159 648.913 180.539 653.645 177.134C653.72 177.091 653.805 177.068 653.892 177.068C653.979 177.068 654.064 177.091 654.139 177.134C656.515 178.394 658.971 179.497 661.491 180.436C664.008 181.411 666.606 182.163 669.254 182.681C671.904 183.233 674.618 183.399 677.315 183.176C680.016 182.946 682.625 182.08 684.93 180.65C682.66 182.176 680.062 183.143 677.348 183.473C674.602 183.783 671.825 183.688 669.106 183.193C666.408 182.744 663.755 182.059 661.178 181.146C658.58 180.242 656.056 179.138 653.628 177.844H654.123C649.347 181.416 644.033 184.203 638.381 186.098C632.67 187.936 626.614 188.438 620.678 187.567C614.761 186.592 609.1 184.436 604.03 181.228C598.945 178.073 594.412 174.102 590.613 169.474L591.783 169.606C587.32 173.45 582.539 176.908 577.492 179.94C572.424 183.026 566.924 185.335 561.174 186.791C555.355 188.238 549.263 188.152 543.487 186.544C537.709 184.842 532.605 181.38 528.883 176.639H529.674C528.619 177.794 527.63 179.016 526.509 180.122L524.729 181.674C524.432 181.921 524.152 182.202 523.839 182.433L522.85 183.077C520.259 184.884 517.296 186.085 514.18 186.593C511.082 187.115 507.909 186.98 504.867 186.197C501.89 185.465 499.055 184.243 496.477 182.582V182.582ZM517.262 224.414C520.292 225.841 523.503 226.847 526.806 227.402C530.078 227.969 533.424 227.969 536.696 227.402C538.318 227.118 539.912 226.693 541.459 226.131C542.976 225.492 544.432 224.719 545.811 223.82C547.193 222.929 548.484 221.907 549.668 220.766C550.263 220.209 550.814 219.607 551.316 218.966L552.965 217.101C553.064 216.984 553.2 216.906 553.35 216.879C553.501 216.851 553.656 216.877 553.789 216.952C556.859 218.636 560.165 219.844 563.597 220.534C567.024 221.246 570.548 221.358 574.014 220.865C577.48 220.419 580.834 219.333 583.904 217.662C585.456 216.862 586.939 215.934 588.338 214.889C589.755 213.865 591.008 212.61 592.36 211.587C592.537 211.445 592.763 211.379 592.989 211.404C593.214 211.429 593.421 211.542 593.563 211.719V211.719C595.856 214.605 598.783 216.922 602.118 218.487C605.468 220.065 609.131 220.861 612.832 220.815L615.601 220.617C616.523 220.509 617.437 220.344 618.338 220.122C620.163 219.711 621.954 219.159 623.695 218.471C625.442 217.794 627.107 216.919 628.821 216.143L633.667 213.238C633.764 213.17 633.879 213.134 633.997 213.134C634.115 213.134 634.23 213.17 634.326 213.238C636.516 215.033 638.817 216.687 641.216 218.19C643.614 219.721 646.127 221.062 648.733 222.202C651.345 223.371 654.127 224.112 656.974 224.397C659.826 224.7 662.696 224.044 665.134 222.532C662.723 224.201 659.815 224.994 656.892 224.777C654.004 224.59 651.166 223.938 648.485 222.846C645.789 221.788 643.192 220.496 640.722 218.983C638.241 217.492 635.862 215.837 633.601 214.03H634.277L629.332 217.117C627.601 217.959 625.903 218.884 624.123 219.626C622.318 220.323 620.461 220.875 618.568 221.277C617.596 221.459 616.673 221.74 615.7 221.822L612.766 222.037C608.831 222.122 604.929 221.304 601.36 219.643C597.766 217.988 594.61 215.511 592.146 212.412L593.382 212.528C591.997 213.7 590.662 214.971 589.179 216.028C587.704 217.11 586.144 218.071 584.514 218.9C581.278 220.628 577.752 221.748 574.113 222.202C570.483 222.69 566.796 222.539 563.217 221.756C559.632 221.016 556.191 219.695 553.031 217.844L553.855 217.695L552.207 219.61C551.658 220.263 551.057 220.871 550.41 221.426C549.158 222.598 547.788 223.638 546.322 224.529C544.865 225.428 543.332 226.196 541.74 226.824C540.13 227.372 538.475 227.775 536.795 228.029C533.431 228.488 530.013 228.365 526.69 227.666C523.404 227.054 520.227 225.958 517.262 224.414V224.414ZM549.784 262.763C551.95 263.247 554.158 263.518 556.377 263.572C558.592 263.604 560.803 263.388 562.97 262.928C565.113 262.453 567.159 261.616 569.02 260.452C570.848 259.271 572.442 257.76 573.717 255.994C573.814 255.876 573.947 255.792 574.095 255.753C574.243 255.715 574.399 255.724 574.541 255.78C576.186 256.412 577.886 256.893 579.618 257.216C581.351 257.547 583.112 257.707 584.876 257.695C586.619 257.661 588.35 257.388 590.019 256.886C591.654 256.358 593.187 255.554 594.552 254.509C594.707 254.392 594.895 254.329 595.088 254.329C595.281 254.329 595.469 254.392 595.624 254.509C597.709 256.236 600.173 257.446 602.814 258.04C605.455 258.634 608.198 258.594 610.821 257.926C612.584 257.472 614.288 256.813 615.898 255.961V255.961C616.027 255.906 616.17 255.891 616.308 255.918C616.446 255.944 616.573 256.011 616.673 256.11C618.03 257.595 619.563 258.909 621.239 260.022C622.911 261.145 624.738 262.018 626.662 262.614C628.6 263.199 630.642 263.351 632.645 263.06C634.665 262.724 636.598 261.989 638.332 260.897C636.665 262.158 634.749 263.048 632.711 263.506C630.641 263.935 628.502 263.901 626.447 263.406C624.403 262.876 622.452 262.036 620.662 260.914C618.862 259.808 617.201 258.489 615.717 256.985L616.524 257.117C615.651 257.546 614.876 258.041 613.92 258.404C613.022 258.784 612.096 259.093 611.151 259.329C609.258 259.854 607.292 260.06 605.332 259.94C601.366 259.71 597.572 258.237 594.486 255.73H595.558C594.023 256.884 592.3 257.761 590.464 258.322C588.647 258.846 586.767 259.118 584.876 259.131C583.01 259.128 581.149 258.935 579.322 258.553C577.491 258.18 575.703 257.627 573.981 256.902L574.805 256.688C573.366 258.526 571.6 260.081 569.596 261.277C567.59 262.433 565.398 263.232 563.119 263.638C560.869 264.011 558.583 264.105 556.311 263.918C554.098 263.782 551.909 263.394 549.784 262.763V262.763ZM501.85 101.064C503.663 100.706 505.431 100.152 507.125 99.4129C508.827 98.681 510.479 97.8372 512.07 96.8871C513.641 95.9161 515.15 94.8465 516.586 93.6845C518.025 92.5325 519.4 91.3036 520.707 90.0032C520.773 89.9451 520.858 89.9131 520.946 89.9131C521.034 89.9131 521.119 89.9451 521.185 90.0032V90.0032C526.207 93.7533 531.913 96.4843 537.982 98.0427C544.027 99.6104 550.345 99.8078 556.476 98.6205C562.587 97.3703 568.38 94.8877 573.503 91.3238C578.647 87.754 583.297 83.5187 587.332 78.728C587.471 78.5776 587.66 78.4829 587.863 78.4616C588.066 78.4403 588.27 78.4939 588.437 78.6124V78.6124C593.65 82.4812 599.206 85.8631 605.036 88.7155C610.834 91.6229 616.952 93.8391 623.266 95.3188C629.555 96.8835 636.086 97.2198 642.502 96.3093C645.689 95.7643 648.799 94.8387 651.766 93.5524C654.696 92.2276 657.461 90.5656 660.007 88.5999C660.062 88.5512 660.132 88.5243 660.205 88.5243C660.278 88.5243 660.348 88.5512 660.403 88.5999C661.959 90.6964 664.056 92.3286 666.469 93.3213C667.687 93.7882 668.99 93.9962 670.293 93.9321C671.636 93.8589 672.952 93.5224 674.166 92.9416C672.984 93.5506 671.698 93.9315 670.375 94.0642C669.042 94.1977 667.695 94.0284 666.436 93.5689C665.166 93.1289 663.975 92.4879 662.908 91.6705C661.829 90.8706 660.86 89.9327 660.024 88.8806H660.419C657.89 90.9836 655.124 92.7841 652.178 94.2458C649.167 95.6189 646.001 96.6222 642.749 97.2338C636.177 98.3066 629.46 98.0936 622.969 96.6065C616.532 95.1336 610.287 92.9177 604.36 90.0032C598.416 87.1371 592.749 83.7274 587.431 79.8175L588.552 79.702C584.414 84.5893 579.635 88.8931 574.344 92.4959C569.041 96.1556 563.043 98.6842 556.723 99.9246C550.4 101.11 543.889 100.81 537.701 99.0497C534.622 98.2056 531.635 97.0553 528.784 95.616C525.91 94.2098 523.201 92.4879 520.707 90.4819H521.218C519.855 91.7629 518.424 92.9697 516.932 94.0972C515.439 95.2246 513.875 96.2557 512.251 97.1843C509.033 99.0671 505.514 100.38 501.85 101.064V101.064Z" fill="#686868"/>
<path d="M523.361 94.7083C523.265 95.2957 522.964 95.8297 522.511 96.215C522.058 96.6003 521.483 96.8119 520.889 96.8119C520.294 96.8119 519.719 96.6003 519.267 96.215C518.814 95.8297 518.512 95.2957 518.416 94.7083C518.416 93.3216 520.905 90.1355 520.905 90.1355C520.905 90.1355 523.361 93.3216 523.361 94.7083ZM590.514 83.7798C590.444 84.3873 590.153 84.9478 589.697 85.3546C589.241 85.7614 588.652 85.9862 588.042 85.9862C587.431 85.9862 586.842 85.7614 586.386 85.3546C585.93 84.9478 585.639 84.3873 585.569 83.7798C585.569 82.3931 588.058 79.207 588.058 79.207C588.058 79.207 590.514 82.3931 590.514 83.7798ZM662.859 93.3051C662.9 93.6543 662.866 94.0081 662.76 94.3433C662.654 94.6784 662.479 94.9874 662.245 95.2498C662.012 95.5123 661.725 95.7223 661.405 95.8661C661.085 96.01 660.738 96.0843 660.387 96.0843C660.036 96.0843 659.689 96.01 659.369 95.8661C659.048 95.7223 658.762 95.5123 658.528 95.2498C658.295 94.9874 658.119 94.6784 658.014 94.3433C657.908 94.0081 657.874 93.6543 657.914 93.3051C657.914 91.9184 660.403 88.7323 660.403 88.7323C660.403 88.7323 662.859 91.9184 662.859 93.3051ZM522.702 133.717C522.606 134.305 522.304 134.839 521.851 135.224C521.399 135.609 520.824 135.821 520.229 135.821C519.635 135.821 519.06 135.609 518.607 135.224C518.154 134.839 517.853 134.305 517.757 133.717C517.757 132.347 520.262 129.161 520.262 129.161C520.262 129.161 522.702 132.331 522.702 133.717ZM531.834 181.08C531.892 181.439 531.872 181.806 531.775 182.157C531.678 182.508 531.506 182.833 531.271 183.11C531.035 183.387 530.743 183.61 530.413 183.763C530.083 183.916 529.724 183.995 529.361 183.995C528.998 183.995 528.639 183.916 528.309 183.763C527.979 183.61 527.687 183.387 527.452 183.11C527.216 182.833 527.044 182.508 526.947 182.157C526.85 181.806 526.83 181.439 526.889 181.08C526.889 179.71 529.394 176.524 529.394 176.524C529.394 176.524 531.834 179.71 531.834 181.08ZM593.695 173.668C593.599 174.255 593.298 174.789 592.845 175.174C592.392 175.56 591.817 175.771 591.223 175.771C590.629 175.771 590.054 175.56 589.601 175.174C589.148 174.789 588.846 174.255 588.75 173.668C588.75 172.297 591.256 169.111 591.256 169.111C591.256 169.111 593.695 172.297 593.695 173.668ZM656.332 182.07C656.372 182.42 656.338 182.773 656.232 183.108C656.127 183.444 655.951 183.753 655.718 184.015C655.484 184.278 655.198 184.488 654.878 184.631C654.557 184.775 654.21 184.85 653.859 184.85C653.508 184.85 653.161 184.775 652.841 184.631C652.521 184.488 652.235 184.278 652.001 184.015C651.768 183.753 651.592 183.444 651.486 183.108C651.38 182.773 651.347 182.42 651.387 182.07C651.387 180.684 653.876 177.498 653.876 177.498C653.876 177.498 656.332 180.684 656.332 182.07ZM636.47 218.323C636.399 218.93 636.109 219.491 635.653 219.897C635.197 220.304 634.608 220.529 633.997 220.529C633.386 220.529 632.797 220.304 632.341 219.897C631.885 219.491 631.595 218.93 631.525 218.323C631.525 216.952 634.014 213.766 634.014 213.766C634.014 213.766 636.47 216.952 636.47 218.323ZM595.443 216.655C595.372 217.263 595.082 217.823 594.626 218.23C594.17 218.637 593.581 218.862 592.97 218.862C592.359 218.862 591.77 218.637 591.314 218.23C590.858 217.823 590.568 217.263 590.498 216.655C590.498 215.269 592.987 212.082 592.987 212.082C592.987 212.082 595.443 215.269 595.443 216.655ZM555.965 222.136C555.895 222.743 555.604 223.304 555.148 223.711C554.693 224.118 554.103 224.342 553.493 224.342C552.882 224.342 552.293 224.118 551.837 223.711C551.381 223.304 551.09 222.743 551.02 222.136C551.02 220.749 553.509 217.563 553.509 217.563C553.509 217.563 555.965 220.749 555.965 222.136ZM577.558 260.6C577.604 260.926 577.585 261.257 577.502 261.574C577.42 261.892 577.276 262.191 577.079 262.453C576.881 262.715 576.634 262.936 576.352 263.102C576.069 263.269 575.757 263.378 575.432 263.423C575.107 263.469 574.777 263.45 574.459 263.367C574.142 263.285 573.844 263.141 573.582 262.943C573.32 262.745 573.1 262.498 572.934 262.215C572.768 261.932 572.659 261.619 572.613 261.294C572.415 259.924 574.443 256.424 574.443 256.424C574.443 256.424 577.36 259.181 577.558 260.6ZM597.882 259.593C597.898 259.921 597.848 260.249 597.736 260.558C597.623 260.866 597.451 261.149 597.229 261.39C597.006 261.631 596.738 261.826 596.44 261.962C596.142 262.099 595.82 262.175 595.492 262.185C594.833 262.208 594.192 261.969 593.707 261.521C593.223 261.073 592.934 260.451 592.904 259.791C592.904 258.421 595.228 255.136 595.228 255.136C595.228 255.136 597.833 258.223 597.882 259.593ZM618.338 261.327C618.236 261.949 617.904 262.509 617.407 262.895C616.909 263.281 616.285 263.464 615.658 263.407C615.032 263.351 614.45 263.059 614.03 262.59C613.609 262.122 613.382 261.511 613.393 260.881C613.525 259.511 616.294 256.556 616.294 256.556C616.294 256.556 618.47 259.957 618.338 261.327ZM592.591 131.043C592.631 131.392 592.597 131.746 592.492 132.081C592.386 132.416 592.21 132.725 591.977 132.988C591.743 133.25 591.457 133.46 591.137 133.604C590.817 133.748 590.47 133.822 590.119 133.822C589.768 133.822 589.421 133.748 589.1 133.604C588.78 133.46 588.494 133.25 588.26 132.988C588.027 132.725 587.851 132.416 587.745 132.081C587.64 131.746 587.606 131.392 587.646 131.043C587.646 129.673 590.135 126.47 590.135 126.47C590.135 126.47 592.591 129.673 592.591 131.043ZM664.87 137.597C664.911 137.946 664.877 138.3 664.771 138.635C664.665 138.97 664.49 139.279 664.256 139.542C664.023 139.804 663.736 140.014 663.416 140.158C663.096 140.302 662.749 140.376 662.398 140.376C662.047 140.376 661.7 140.302 661.379 140.158C661.059 140.014 660.773 139.804 660.539 139.542C660.306 139.279 660.13 138.97 660.025 138.635C659.919 138.3 659.885 137.946 659.925 137.597C659.925 136.227 662.414 133.041 662.414 133.041C662.414 133.041 664.87 136.227 664.87 137.597Z" fill="#0850EC"/>
<path d="M666.073 495.563C666.073 491.634 665.018 486.616 659.612 485.13C657.865 481.019 651.881 477.982 644.777 477.982C644.777 477.602 644.777 477.206 644.777 476.826C644.777 466.525 632.925 458.172 618.305 458.172C617.349 458.172 616.409 458.172 615.486 458.287V458.172C615.486 445.625 603.371 435.456 588.437 435.456C573.503 435.456 561.388 445.625 561.388 458.172C561.388 458.386 561.388 458.601 561.388 458.799C557.625 457.604 553.699 457.002 549.751 457.016C532.855 457.016 519.158 467.714 519.158 480.904C519.158 491.42 527.877 500.35 539.976 503.537L541.707 503.949C544.351 504.511 547.047 504.793 549.751 504.791C552.536 504.791 651.074 503.949 651.074 503.949C654.975 503.977 658.802 502.883 662.101 500.796C664.277 499.393 666.073 497.594 666.073 495.563ZM206.041 158.001C206.041 154.072 205.003 149.054 199.58 147.568C197.832 143.457 191.849 140.42 184.745 140.42C184.745 140.04 184.745 139.644 184.745 139.248C184.745 128.963 172.893 120.61 158.372 120.61C157.415 120.61 156.459 120.61 155.536 120.709V120.61C155.536 108.063 143.438 97.8778 128.487 97.8778C113.537 97.8778 101.372 108.063 101.372 120.61C101.372 120.824 101.372 121.022 101.372 121.237C97.6098 120.037 93.6838 119.429 89.7351 119.438C72.8397 119.438 59.1421 130.135 59.1421 143.325C59.1421 153.857 67.8617 162.772 79.9605 165.958L81.6088 166.371C84.2535 166.931 86.9494 167.213 89.6527 167.213C92.4383 167.213 190.975 166.371 190.975 166.371C194.878 166.409 198.709 165.314 202.003 163.218C204.261 161.781 206.041 160.032 206.041 158.001ZM803 60.1068C803 56.1778 801.945 51.1758 796.539 49.6735C794.791 45.5629 788.808 42.5254 781.704 42.5254C781.704 42.1292 781.704 41.7495 781.704 41.3533C781.704 31.0521 769.852 22.6989 755.231 22.6989C754.275 22.6989 753.336 22.6989 752.413 22.8145V22.6989C752.363 10.1691 740.248 0 725.265 0C710.282 0 698.216 10.1691 698.216 22.7154C698.216 22.93 698.216 23.1447 698.216 23.3428C694.451 22.1556 690.526 21.5543 686.579 21.5599C669.683 21.5599 655.986 32.2572 655.986 45.4474C655.986 55.9632 664.705 64.8942 676.804 68.0803L678.535 68.493C681.179 69.0543 683.875 69.3365 686.579 69.3349C689.364 69.3349 787.901 68.493 787.901 68.493C791.804 68.5295 795.634 67.4345 798.929 65.3399C801.088 63.9367 803 62.1373 803 60.1068Z" fill="#C1E3F7"/>
<path d="M768.303 349.2C764.987 350.001 761.623 350.585 758.231 350.95C754.869 351.346 751.501 351.621 748.127 351.775C744.754 351.93 741.374 351.968 737.99 351.891C734.58 351.829 731.178 351.553 727.803 351.066C731.119 350.264 734.483 349.679 737.874 349.316C741.237 348.92 744.605 348.644 747.979 348.49C751.358 348.325 754.737 348.309 758.116 348.391C761.525 348.44 764.928 348.711 768.303 349.2V349.2Z" fill="#439916"/>
<path d="M748.984 370.413C748.185 367.093 747.602 363.723 747.237 360.327C746.842 356.959 746.561 353.586 746.397 350.207C746.232 346.829 746.199 343.444 746.298 340.055C746.36 336.64 746.636 333.233 747.122 329.853C747.921 333.173 748.505 336.543 748.869 339.939C749.265 343.307 749.539 346.68 749.693 350.059C749.858 353.36 749.874 356.827 749.792 360.211C749.744 363.626 749.474 367.034 748.984 370.413ZM707.298 357.339C708.113 360.201 708.713 363.12 709.095 366.072C709.523 368.994 709.82 371.916 709.985 374.854C710.15 377.793 710.216 380.731 710.15 383.686C710.117 386.667 709.863 389.641 709.391 392.584C708.578 389.716 707.978 386.792 707.595 383.835C707.183 380.913 706.87 377.991 706.705 375.052C706.54 372.114 706.474 369.175 706.54 366.22C706.572 363.245 706.826 360.276 707.298 357.339V357.339Z" fill="#439916"/>
<path d="M725.941 373.897C723.081 374.71 720.167 375.317 717.221 375.713C714.303 376.125 711.386 376.422 708.452 376.604C705.518 376.786 702.567 376.835 699.633 376.769C696.657 376.736 693.687 376.482 690.749 376.01C693.607 375.19 696.521 374.583 699.468 374.194C702.386 373.781 705.32 373.468 708.254 373.302C711.188 373.137 714.122 373.088 717.073 373.154C720.043 373.189 723.006 373.437 725.941 373.897ZM229.612 32.868C226.298 33.6865 222.934 34.2875 219.541 34.6674C216.178 35.0636 212.81 35.3387 209.437 35.4928C206.14 35.6579 202.679 35.6744 199.299 35.5918C195.889 35.5453 192.486 35.2695 189.113 34.7664C192.43 33.9739 195.794 33.3895 199.184 33.0165C202.481 32.6368 205.909 32.3397 209.288 32.1911C212.667 32.0425 216.046 32.0095 219.426 32.0921C222.834 32.1373 226.236 32.3964 229.612 32.868V32.868Z" fill="#439916"/>
<path d="M210.294 54.0814C209.494 50.7605 208.911 47.3913 208.546 43.9949C208.151 40.6272 207.876 37.254 207.722 33.8753C207.557 30.4911 207.541 27.1069 207.623 23.7226C207.671 20.308 207.941 16.9001 208.431 13.5205C209.236 16.8355 209.825 20.1992 210.195 23.5906C210.574 26.9748 210.871 30.3425 211.019 33.7267C211.167 37.1109 211.2 40.4951 211.019 43.8793C210.997 47.2921 210.755 50.6999 210.294 54.0814ZM168.607 40.9903C169.418 43.8545 170.024 46.7729 170.421 49.7232C170.833 52.6452 171.129 55.5837 171.311 58.5222C171.492 61.4607 171.541 64.3991 171.476 67.3541C171.443 70.3294 171.19 73.2981 170.717 76.2356C169.897 73.3738 169.291 70.4547 168.904 67.5027C168.492 64.5807 168.179 61.6588 168.014 58.7203C167.849 55.7818 167.8 52.8268 167.866 49.8883C167.901 46.9084 168.149 43.9349 168.607 40.9903V40.9903Z" fill="#439916"/>
<path d="M187.266 57.5645C184.403 58.3789 181.483 58.9804 178.53 59.3639C175.613 59.7931 172.695 60.0902 169.761 60.2553C166.827 60.4204 163.893 60.4864 160.943 60.4204C157.972 60.3882 155.008 60.1344 152.075 59.661C154.932 58.845 157.847 58.2435 160.794 57.8616C163.712 57.4489 166.629 57.1353 169.563 56.9702C172.497 56.8051 175.431 56.7391 178.382 56.8051C181.358 56.838 184.328 57.0918 187.266 57.5645V57.5645ZM163.415 634.943C160.081 635.732 156.701 636.311 153.294 636.676C149.998 637.072 146.569 637.369 143.19 637.518C139.811 637.667 136.432 637.7 133.053 637.617C129.643 637.563 126.24 637.287 122.866 636.792C126.182 635.991 129.546 635.407 132.938 635.042C136.3 634.646 139.668 634.37 143.042 634.216C146.338 634.051 149.8 634.035 153.179 634.117C156.605 634.169 160.025 634.445 163.415 634.943V634.943Z" fill="#439916"/>
<path d="M144.097 656.14C143.298 652.824 142.714 649.46 142.349 646.069C141.954 642.702 141.679 639.323 141.525 635.933C141.371 632.544 141.333 629.159 141.41 625.781C141.473 622.366 141.748 618.959 142.234 615.579C143.033 618.9 143.617 622.269 143.981 625.665C144.377 628.967 144.674 632.417 144.805 635.785C144.937 639.152 145.003 642.553 144.904 645.954C144.856 649.363 144.586 652.765 144.097 656.14V656.14ZM102.41 643.065C103.223 645.929 103.829 648.847 104.224 651.798C104.636 654.72 104.932 657.642 105.114 660.58C105.295 663.519 105.344 666.474 105.279 669.412C105.246 672.393 104.992 675.367 104.52 678.31C103.702 675.448 103.096 672.529 102.707 669.577C102.295 666.655 101.982 663.717 101.817 660.778C101.652 657.84 101.586 654.901 101.652 651.946C101.684 648.971 101.938 646.002 102.41 643.065V643.065Z" fill="#439916"/>
<path d="M121.053 659.623C118.196 660.444 115.281 661.051 112.333 661.439C109.416 661.852 106.498 662.165 103.564 662.33C100.63 662.495 97.6963 662.561 94.7458 662.495C91.7697 662.462 88.8 662.209 85.8613 661.736C88.7263 660.922 91.6458 660.316 94.5975 659.92C97.515 659.507 100.433 659.21 103.367 659.029C106.301 658.847 109.235 658.814 112.185 658.88C115.155 658.915 118.119 659.163 121.053 659.623V659.623Z" fill="#439916"/>
<path d="M0 339.46C2.82523 332.903 6.42207 326.707 10.7141 321.004C15.0709 315.327 20.2357 310.321 26.0436 306.146C31.8808 301.926 38.3907 298.727 45.2961 296.687C52.1845 294.807 59.1736 293.319 66.2299 292.23C73.2205 291.088 80.1429 289.562 86.9658 287.657C93.7662 285.7 100.443 283.335 106.96 280.575C113.499 277.829 119.872 274.704 126.048 271.215C132.262 267.798 138.262 263.984 144.179 259.989C132.814 268.6 120.497 275.873 107.471 281.665C94.3842 287.437 80.6215 291.531 66.5101 293.848C59.5127 294.883 52.5789 296.311 45.7411 298.123C38.9868 300.067 32.5871 303.083 26.7853 307.054C15.0987 315.077 6.24717 326.716 0 339.46Z" fill="#A0C2EA"/>
<path d="M477.274 464.511C479.409 457.695 482.353 451.161 486.043 445.048C489.759 438.89 494.377 433.326 499.741 428.539C505.099 423.74 511.229 419.884 517.872 417.132C524.522 414.548 531.313 412.343 538.213 410.529C545.052 408.679 551.782 406.446 558.372 403.843C564.933 401.182 571.334 398.139 577.542 394.73C583.759 391.317 589.775 387.547 595.558 383.439C601.377 379.394 606.948 374.986 612.387 370.397C601.991 380.168 590.503 388.704 578.152 395.836C565.73 402.907 552.466 408.376 538.674 412.114C531.812 413.864 525.054 416.003 518.433 418.519C511.916 421.195 505.868 424.895 500.515 429.48C489.785 438.692 482.169 451.205 477.274 464.511ZM285.969 145.092C291.903 143.991 297.782 142.676 303.606 141.146C309.424 139.495 315.144 137.712 320.88 135.863C326.627 134.12 332.21 131.872 337.561 129.145C340.178 127.743 342.609 126.018 344.798 124.011C346.958 121.98 348.803 119.638 350.27 117.061C351.756 114.5 352.95 111.782 353.83 108.955C354.748 106.181 355.062 103.243 354.754 100.338C354.585 98.9303 354.116 97.5757 353.38 96.3653C352.643 95.1549 351.656 94.117 350.484 93.3215C348.054 91.7451 345.263 90.8134 342.375 90.6142C339.477 90.3525 336.557 90.7533 333.836 91.7863C332.507 92.275 331.291 93.0274 330.259 93.9984C329.235 94.9005 328.496 96.0824 328.133 97.3991C327.56 100.209 327.871 103.127 329.023 105.752C330.058 108.492 331.54 111.042 333.408 113.297C337.199 117.77 342.704 120.461 348.243 122.36C353.963 124.145 359.787 125.578 365.682 126.652C377.425 129.186 389.468 130.042 401.451 129.194C425.533 127.03 448.455 117.848 467.384 102.781C458.069 110.505 447.693 116.848 436.577 121.617C431.003 123.98 425.255 125.906 419.384 127.378C413.553 128.87 407.611 129.886 401.616 130.416C389.518 131.408 377.341 130.629 365.468 128.105C359.498 127.024 353.598 125.59 347.798 123.812C342.078 121.881 336.259 119.124 332.155 114.32C330.172 111.919 328.606 109.201 327.523 106.281C326.255 103.331 325.944 100.057 326.633 96.9203C327.068 95.3176 327.962 93.8773 329.204 92.7768C330.387 91.6844 331.769 90.8322 333.276 90.2675C336.213 89.1582 339.366 88.7402 342.49 89.0459C345.646 89.2583 348.692 90.2941 351.325 92.0504C352.65 92.9735 353.772 94.159 354.622 95.5337C355.434 96.923 355.961 98.4609 356.171 100.057C356.512 103.17 356.169 106.319 355.166 109.285C354.217 112.208 352.945 115.015 351.374 117.655C349.813 120.313 347.863 122.723 345.589 124.803C343.313 126.852 340.788 128.605 338.072 130.02C332.637 132.72 326.972 134.93 321.144 136.623C315.358 138.274 309.606 140.09 303.721 141.575C297.837 143.061 291.936 144.167 285.969 145.092Z" fill="#C1E3F7"/>
</g>
<defs>
<clipPath id="clip0_342_79">
<rect width="803" height="695" fill="white"/>
</clipPath>
</defs>
</svg>
